<svg width="1920" height="1080" viewBox="0 0 1920 1080" fill="none" xmlns="http://www.w3.org/2000/svg">
<g clip-path="url(#clip0_8_961)">
<rect width="1920" height="1080" fill="url(#paint0_radial_8_961)"/>
<rect width="1920" height="1080" fill="url(#paint1_radial_8_961)"/>
<rect width="1920" height="1080" fill="url(#paint2_radial_8_961)" fill-opacity="0.5"/>
<path fill-rule="evenodd" clip-rule="evenodd" d="M998.834 332.326C998.834 345.648 987.751 356.893 973.524 356.893C959.297 356.893 948.213 345.648 948.213 332.326C948.213 319.003 959.297 307.758 973.524 307.758C987.751 307.758 998.834 319.003 998.834 332.326ZM982.124 369.72C999.565 365.877 1012.6 350.594 1012.6 332.326C1012.6 311.159 995.102 294 973.524 294C951.945 294 934.452 311.159 934.452 332.326C934.452 350.935 947.974 366.447 965.906 369.923V418.067V423.144V432.562V433.053C969.148 432.588 972.446 432.492 975.735 432.727C984.749 433.369 993.704 436.494 1001.28 441.301C1011.62 447.861 1019.28 457.901 1022.86 469.609C1026.45 481.317 1025.73 493.921 1020.84 505.147C1015.95 516.373 1007.21 525.481 996.19 530.827C985.172 536.174 972.605 537.408 960.758 534.304C948.91 531.201 938.562 523.967 931.581 513.905C924.6 503.844 921.446 491.62 922.688 479.439C923.93 467.259 929.485 455.925 938.35 447.48L938.356 447.475L934.11 443.019L931.576 440.359L927.331 435.904C924.936 438.184 922.726 440.625 920.711 443.204C912.941 453.147 908.08 465.133 906.786 477.818C905.63 489.156 907.378 500.523 911.764 510.883L847.233 547.913C837.873 538.87 825.026 533.29 810.849 533.29C782.214 533.29 759 556.059 759 584.145C759 612.231 782.214 635 810.849 635C839.485 635 862.699 612.231 862.699 584.145C862.699 575.806 860.652 567.935 857.025 560.99L919.838 524.945C928.949 537.133 941.939 545.896 956.706 549.764C972.243 553.833 988.722 552.216 1003.17 545.204C1012.76 540.549 1021.04 533.718 1027.4 525.344L1076.32 553.705C1075.15 557.591 1074.52 561.705 1074.52 565.965C1074.52 589.709 1094.1 608.958 1118.26 608.958C1142.42 608.958 1162 589.709 1162 565.965C1162 542.22 1142.42 522.971 1118.26 522.971C1104.32 522.971 1091.91 529.376 1083.9 539.355L1035.58 511.342C1041.92 496.668 1042.83 480.215 1038.15 464.928C1033.44 449.576 1023.4 436.41 1009.84 427.807C1001.04 422.22 991.843 418.819 982.124 417.746V369.72ZM847.955 584.145C847.955 603.826 831.609 620.259 810.849 620.259C790.089 620.259 773.744 603.826 773.744 584.145C773.744 564.464 790.089 548.03 810.849 548.03C831.609 548.03 847.955 564.464 847.955 584.145ZM1118.26 596.183C1135.57 596.183 1149.22 582.45 1149.22 565.965C1149.22 549.479 1135.57 535.746 1118.26 535.746C1100.95 535.746 1087.3 549.479 1087.3 565.965C1087.3 582.45 1100.95 596.183 1118.26 596.183ZM1004.24 484.646C1004.24 501.47 990.598 515.11 973.77 515.11C956.941 515.11 943.299 501.47 943.299 484.646C943.299 467.821 956.941 454.182 973.77 454.182C990.598 454.182 1004.24 467.821 1004.24 484.646Z" fill="url(#paint3_linear_8_961)"/>
<path d="M788.141 712.984C788.141 715.828 787.609 718.359 786.547 720.578C785.516 722.797 784.062 724.688 782.188 726.25C780.344 727.781 778.156 728.938 775.625 729.719C773.125 730.5 770.422 730.891 767.516 730.891C765.484 730.891 763.594 730.719 761.844 730.375C760.125 730.031 758.578 729.609 757.203 729.109C755.859 728.609 754.719 728.094 753.781 727.562C752.875 727.031 752.234 726.578 751.859 726.203C751.516 725.828 751.25 725.359 751.062 724.797C750.906 724.203 750.828 723.422 750.828 722.453C750.828 721.766 750.859 721.203 750.922 720.766C750.984 720.297 751.078 719.922 751.203 719.641C751.328 719.359 751.484 719.172 751.672 719.078C751.859 718.953 752.078 718.891 752.328 718.891C752.766 718.891 753.375 719.156 754.156 719.688C754.969 720.219 756 720.797 757.25 721.422C758.5 722.047 760 722.641 761.75 723.203C763.531 723.734 765.578 724 767.891 724C769.641 724 771.234 723.766 772.672 723.297C774.141 722.828 775.391 722.172 776.422 721.328C777.484 720.453 778.297 719.391 778.859 718.141C779.422 716.891 779.703 715.469 779.703 713.875C779.703 712.156 779.312 710.688 778.531 709.469C777.75 708.25 776.719 707.188 775.438 706.281C774.156 705.344 772.688 704.5 771.031 703.75C769.406 702.969 767.734 702.188 766.016 701.406C764.297 700.594 762.625 699.703 761 698.734C759.375 697.766 757.922 696.625 756.641 695.312C755.359 694 754.312 692.469 753.5 690.719C752.719 688.938 752.328 686.812 752.328 684.344C752.328 681.812 752.781 679.562 753.688 677.594C754.625 675.594 755.906 673.922 757.531 672.578C759.188 671.234 761.141 670.219 763.391 669.531C765.672 668.812 768.125 668.453 770.75 668.453C772.094 668.453 773.438 668.578 774.781 668.828C776.156 669.047 777.438 669.359 778.625 669.766C779.844 670.141 780.922 670.578 781.859 671.078C782.797 671.547 783.406 671.938 783.688 672.25C784 672.531 784.203 672.766 784.297 672.953C784.391 673.109 784.469 673.328 784.531 673.609C784.594 673.859 784.641 674.172 784.672 674.547C784.703 674.922 784.719 675.406 784.719 676C784.719 676.562 784.688 677.062 784.625 677.5C784.594 677.938 784.531 678.312 784.438 678.625C784.344 678.906 784.203 679.125 784.016 679.281C783.859 679.406 783.672 679.469 783.453 679.469C783.109 679.469 782.562 679.25 781.812 678.812C781.094 678.375 780.203 677.891 779.141 677.359C778.078 676.797 776.812 676.297 775.344 675.859C773.906 675.391 772.281 675.156 770.469 675.156C768.781 675.156 767.312 675.391 766.062 675.859C764.812 676.297 763.781 676.891 762.969 677.641C762.156 678.391 761.547 679.281 761.141 680.312C760.734 681.344 760.531 682.438 760.531 683.594C760.531 685.281 760.922 686.734 761.703 687.953C762.484 689.172 763.516 690.25 764.797 691.188C766.109 692.125 767.594 692.984 769.25 693.766C770.906 694.547 772.594 695.344 774.312 696.156C776.031 696.938 777.719 697.812 779.375 698.781C781.031 699.719 782.5 700.844 783.781 702.156C785.094 703.438 786.141 704.969 786.922 706.75C787.734 708.5 788.141 710.578 788.141 712.984ZM816.828 730L811.203 745.516C811.016 746.016 810.531 746.391 809.75 746.641C809 746.922 807.844 747.062 806.281 747.062C805.469 747.062 804.812 747.016 804.312 746.922C803.812 746.859 803.422 746.734 803.141 746.547C802.891 746.359 802.75 746.109 802.719 745.797C802.688 745.484 802.766 745.109 802.953 744.672L808.766 730C808.484 729.875 808.219 729.672 807.969 729.391C807.719 729.109 807.547 728.812 807.453 728.5L792.406 688.188C792.156 687.531 792.031 687.016 792.031 686.641C792.031 686.266 792.156 685.969 792.406 685.75C792.656 685.531 793.062 685.391 793.625 685.328C794.188 685.234 794.938 685.188 795.875 685.188C796.812 685.188 797.547 685.219 798.078 685.281C798.609 685.312 799.031 685.391 799.344 685.516C799.656 685.641 799.875 685.828 800 686.078C800.156 686.297 800.312 686.609 800.469 687.016L812.516 720.859H812.656L824.281 686.828C824.469 686.234 824.688 685.859 824.938 685.703C825.219 685.516 825.625 685.391 826.156 685.328C826.688 685.234 827.453 685.188 828.453 685.188C829.328 685.188 830.047 685.234 830.609 685.328C831.172 685.391 831.578 685.531 831.828 685.75C832.109 685.969 832.25 686.266 832.25 686.641C832.25 687.016 832.156 687.484 831.969 688.047L816.828 730ZM877.438 728.828C877.438 729.078 877.375 729.297 877.25 729.484C877.125 729.641 876.922 729.781 876.641 729.906C876.359 730.031 875.969 730.125 875.469 730.188C874.969 730.25 874.344 730.281 873.594 730.281C872.812 730.281 872.172 730.25 871.672 730.188C871.172 730.125 870.781 730.031 870.5 729.906C870.219 729.781 870.016 729.641 869.891 729.484C869.766 729.297 869.703 729.078 869.703 728.828V704.125C869.703 701.719 869.516 699.781 869.141 698.312C868.766 696.844 868.219 695.578 867.5 694.516C866.781 693.453 865.844 692.641 864.688 692.078C863.562 691.516 862.25 691.234 860.75 691.234C858.812 691.234 856.875 691.922 854.938 693.297C853 694.672 850.969 696.688 848.844 699.344V728.828C848.844 729.078 848.781 729.297 848.656 729.484C848.531 729.641 848.328 729.781 848.047 729.906C847.766 730.031 847.375 730.125 846.875 730.188C846.375 730.25 845.734 730.281 844.953 730.281C844.203 730.281 843.578 730.25 843.078 730.188C842.578 730.125 842.172 730.031 841.859 729.906C841.578 729.781 841.375 729.641 841.25 729.484C841.156 729.297 841.109 729.078 841.109 728.828V686.641C841.109 686.391 841.156 686.188 841.25 686.031C841.344 685.844 841.531 685.688 841.812 685.562C842.094 685.406 842.453 685.312 842.891 685.281C843.328 685.219 843.906 685.188 844.625 685.188C845.312 685.188 845.875 685.219 846.312 685.281C846.781 685.312 847.141 685.406 847.391 685.562C847.641 685.688 847.812 685.844 847.906 686.031C848.031 686.188 848.094 686.391 848.094 686.641V692.219C850.469 689.562 852.828 687.625 855.172 686.406C857.547 685.156 859.938 684.531 862.344 684.531C865.156 684.531 867.516 685.016 869.422 685.984C871.359 686.922 872.922 688.188 874.109 689.781C875.297 691.375 876.141 693.25 876.641 695.406C877.172 697.531 877.438 700.094 877.438 703.094V728.828ZM923.328 728.875C923.328 729.25 923.203 729.531 922.953 729.719C922.703 729.906 922.359 730.047 921.922 730.141C921.484 730.234 920.844 730.281 920 730.281C919.188 730.281 918.531 730.234 918.031 730.141C917.562 730.047 917.219 729.906 917 729.719C916.781 729.531 916.672 729.25 916.672 728.875V724.656C914.828 726.625 912.766 728.156 910.484 729.25C908.234 730.344 905.844 730.891 903.312 730.891C901.094 730.891 899.078 730.594 897.266 730C895.484 729.438 893.953 728.609 892.672 727.516C891.422 726.422 890.438 725.078 889.719 723.484C889.031 721.891 888.688 720.078 888.688 718.047C888.688 715.672 889.172 713.609 890.141 711.859C891.109 710.109 892.5 708.656 894.312 707.5C896.125 706.344 898.344 705.484 900.969 704.922C903.594 704.328 906.547 704.031 909.828 704.031H915.641V700.75C915.641 699.125 915.469 697.688 915.125 696.438C914.781 695.188 914.219 694.156 913.438 693.344C912.688 692.5 911.703 691.875 910.484 691.469C909.266 691.031 907.766 690.812 905.984 690.812C904.078 690.812 902.359 691.047 900.828 691.516C899.328 691.953 898 692.453 896.844 693.016C895.719 693.547 894.766 694.047 893.984 694.516C893.234 694.953 892.672 695.172 892.297 695.172C892.047 695.172 891.828 695.109 891.641 694.984C891.453 694.859 891.281 694.672 891.125 694.422C891 694.172 890.906 693.859 890.844 693.484C890.781 693.078 890.75 692.641 890.75 692.172C890.75 691.391 890.797 690.781 890.891 690.344C891.016 689.875 891.281 689.438 891.688 689.031C892.125 688.625 892.859 688.156 893.891 687.625C894.922 687.062 896.109 686.562 897.453 686.125C898.797 685.656 900.266 685.281 901.859 685C903.453 684.688 905.062 684.531 906.688 684.531C909.719 684.531 912.297 684.875 914.422 685.562C916.547 686.25 918.266 687.266 919.578 688.609C920.891 689.922 921.844 691.562 922.438 693.531C923.031 695.5 923.328 697.797 923.328 700.422V728.875ZM915.641 709.609H909.031C906.906 709.609 905.062 709.797 903.5 710.172C901.938 710.516 900.641 711.047 899.609 711.766C898.578 712.453 897.812 713.297 897.312 714.297C896.844 715.266 896.609 716.391 896.609 717.672C896.609 719.859 897.297 721.609 898.672 722.922C900.078 724.203 902.031 724.844 904.531 724.844C906.562 724.844 908.438 724.328 910.156 723.297C911.906 722.266 913.734 720.688 915.641 718.562V709.609ZM976.391 707.078C976.391 710.766 975.984 714.078 975.172 717.016C974.391 719.953 973.219 722.453 971.656 724.516C970.125 726.547 968.219 728.125 965.938 729.25C963.656 730.344 961.047 730.891 958.109 730.891C956.859 730.891 955.703 730.766 954.641 730.516C953.578 730.266 952.531 729.875 951.5 729.344C950.5 728.812 949.5 728.141 948.5 727.328C947.5 726.516 946.438 725.562 945.312 724.469V745.562C945.312 745.812 945.25 746.031 945.125 746.219C945 746.406 944.797 746.562 944.516 746.688C944.234 746.812 943.844 746.906 943.344 746.969C942.844 747.031 942.203 747.062 941.422 747.062C940.672 747.062 940.047 747.031 939.547 746.969C939.047 746.906 938.641 746.812 938.328 746.688C938.047 746.562 937.844 746.406 937.719 746.219C937.625 746.031 937.578 745.812 937.578 745.562V686.641C937.578 686.359 937.625 686.141 937.719 685.984C937.812 685.797 938 685.641 938.281 685.516C938.562 685.391 938.922 685.312 939.359 685.281C939.797 685.219 940.328 685.188 940.953 685.188C941.609 685.188 942.141 685.219 942.547 685.281C942.984 685.312 943.344 685.391 943.625 685.516C943.906 685.641 944.094 685.797 944.188 685.984C944.312 686.141 944.375 686.359 944.375 686.641V692.312C945.656 691 946.891 689.859 948.078 688.891C949.266 687.922 950.453 687.125 951.641 686.5C952.859 685.844 954.094 685.359 955.344 685.047C956.625 684.703 957.969 684.531 959.375 684.531C962.438 684.531 965.047 685.125 967.203 686.312C969.359 687.5 971.109 689.125 972.453 691.188C973.828 693.25 974.828 695.656 975.453 698.406C976.078 701.125 976.391 704.016 976.391 707.078ZM968.234 707.969C968.234 705.812 968.062 703.734 967.719 701.734C967.406 699.703 966.844 697.906 966.031 696.344C965.25 694.781 964.188 693.531 962.844 692.594C961.5 691.656 959.828 691.188 957.828 691.188C956.828 691.188 955.844 691.344 954.875 691.656C953.906 691.938 952.922 692.406 951.922 693.062C950.922 693.688 949.875 694.531 948.781 695.594C947.688 696.625 946.531 697.906 945.312 699.438V716.219C947.438 718.812 949.453 720.797 951.359 722.172C953.266 723.547 955.266 724.234 957.359 724.234C959.297 724.234 960.953 723.766 962.328 722.828C963.734 721.891 964.859 720.641 965.703 719.078C966.578 717.516 967.219 715.766 967.625 713.828C968.031 711.891 968.234 709.938 968.234 707.969ZM1014.03 717.344C1014.03 719.5 1013.62 721.422 1012.81 723.109C1012.03 724.797 1010.91 726.219 1009.44 727.375C1007.97 728.531 1006.22 729.406 1004.19 730C1002.16 730.594 999.922 730.891 997.484 730.891C995.984 730.891 994.547 730.766 993.172 730.516C991.828 730.297 990.609 730.016 989.516 729.672C988.453 729.297 987.547 728.922 986.797 728.547C986.047 728.141 985.5 727.781 985.156 727.469C984.812 727.156 984.562 726.719 984.406 726.156C984.25 725.594 984.172 724.828 984.172 723.859C984.172 723.266 984.203 722.766 984.266 722.359C984.328 721.953 984.406 721.625 984.5 721.375C984.594 721.125 984.719 720.953 984.875 720.859C985.062 720.734 985.266 720.672 985.484 720.672C985.828 720.672 986.328 720.891 986.984 721.328C987.672 721.734 988.5 722.188 989.469 722.688C990.469 723.188 991.641 723.656 992.984 724.094C994.328 724.5 995.875 724.703 997.625 724.703C998.938 724.703 1000.12 724.562 1001.19 724.281C1002.25 724 1003.17 723.594 1003.95 723.062C1004.73 722.5 1005.33 721.797 1005.73 720.953C1006.17 720.109 1006.39 719.109 1006.39 717.953C1006.39 716.766 1006.08 715.766 1005.45 714.953C1004.86 714.141 1004.06 713.422 1003.06 712.797C1002.06 712.172 1000.94 711.625 999.688 711.156C998.438 710.656 997.141 710.141 995.797 709.609C994.484 709.078 993.188 708.484 991.906 707.828C990.656 707.141 989.531 706.312 988.531 705.344C987.531 704.375 986.719 703.219 986.094 701.875C985.5 700.531 985.203 698.922 985.203 697.047C985.203 695.391 985.516 693.812 986.141 692.312C986.797 690.781 987.766 689.453 989.047 688.328C990.328 687.172 991.922 686.25 993.828 685.562C995.766 684.875 998.016 684.531 1000.58 684.531C1001.7 684.531 1002.83 684.625 1003.95 684.812C1005.08 685 1006.09 685.234 1007 685.516C1007.91 685.797 1008.67 686.109 1009.3 686.453C1009.95 686.766 1010.44 687.047 1010.75 687.297C1011.09 687.547 1011.31 687.766 1011.41 687.953C1011.53 688.141 1011.61 688.359 1011.64 688.609C1011.7 688.828 1011.75 689.109 1011.78 689.453C1011.84 689.797 1011.88 690.219 1011.88 690.719C1011.88 691.25 1011.84 691.719 1011.78 692.125C1011.75 692.5 1011.67 692.812 1011.55 693.062C1011.45 693.312 1011.33 693.5 1011.17 693.625C1011.02 693.719 1010.84 693.766 1010.66 693.766C1010.38 693.766 1009.97 693.594 1009.44 693.25C1008.91 692.906 1008.22 692.547 1007.38 692.172C1006.53 691.766 1005.53 691.391 1004.38 691.047C1003.25 690.703 1001.95 690.531 1000.48 690.531C999.172 690.531 998.016 690.688 997.016 691C996.016 691.281 995.188 691.703 994.531 692.266C993.906 692.797 993.422 693.438 993.078 694.188C992.766 694.938 992.609 695.75 992.609 696.625C992.609 697.844 992.922 698.875 993.547 699.719C994.172 700.531 994.984 701.25 995.984 701.875C996.984 702.5 998.125 703.062 999.406 703.562C1000.69 704.062 1001.98 704.578 1003.3 705.109C1004.64 705.641 1005.95 706.234 1007.23 706.891C1008.55 707.547 1009.7 708.344 1010.7 709.281C1011.7 710.219 1012.5 711.344 1013.09 712.656C1013.72 713.969 1014.03 715.531 1014.03 717.344ZM1061.14 705.906C1061.14 707.125 1060.83 708 1060.2 708.531C1059.61 709.031 1058.92 709.281 1058.14 709.281H1030.48C1030.48 711.625 1030.72 713.734 1031.19 715.609C1031.66 717.484 1032.44 719.094 1033.53 720.438C1034.62 721.781 1036.05 722.812 1037.8 723.531C1039.55 724.25 1041.69 724.609 1044.22 724.609C1046.22 724.609 1048 724.453 1049.56 724.141C1051.12 723.797 1052.47 723.422 1053.59 723.016C1054.75 722.609 1055.69 722.25 1056.41 721.938C1057.16 721.594 1057.72 721.422 1058.09 721.422C1058.31 721.422 1058.5 721.484 1058.66 721.609C1058.84 721.703 1058.98 721.859 1059.08 722.078C1059.17 722.297 1059.23 722.609 1059.27 723.016C1059.33 723.391 1059.36 723.859 1059.36 724.422C1059.36 724.828 1059.34 725.188 1059.31 725.5C1059.28 725.781 1059.23 726.047 1059.17 726.297C1059.14 726.516 1059.06 726.719 1058.94 726.906C1058.84 727.094 1058.7 727.281 1058.52 727.469C1058.36 727.625 1057.86 727.906 1057.02 728.312C1056.17 728.688 1055.08 729.062 1053.73 729.438C1052.39 729.812 1050.83 730.141 1049.05 730.422C1047.3 730.734 1045.42 730.891 1043.42 730.891C1039.95 730.891 1036.91 730.406 1034.28 729.438C1031.69 728.469 1029.5 727.031 1027.72 725.125C1025.94 723.219 1024.59 720.828 1023.69 717.953C1022.78 715.078 1022.33 711.734 1022.33 707.922C1022.33 704.297 1022.8 701.047 1023.73 698.172C1024.67 695.266 1026.02 692.812 1027.77 690.812C1029.55 688.781 1031.69 687.234 1034.19 686.172C1036.69 685.078 1039.48 684.531 1042.58 684.531C1045.89 684.531 1048.7 685.062 1051.02 686.125C1053.36 687.188 1055.28 688.625 1056.78 690.438C1058.28 692.219 1059.38 694.328 1060.06 696.766C1060.78 699.172 1061.14 701.75 1061.14 704.5V705.906ZM1053.36 703.609C1053.45 699.547 1052.55 696.359 1050.64 694.047C1048.77 691.734 1045.97 690.578 1042.25 690.578C1040.34 690.578 1038.67 690.938 1037.23 691.656C1035.8 692.375 1034.59 693.328 1033.62 694.516C1032.66 695.703 1031.91 697.094 1031.38 698.688C1030.84 700.25 1030.55 701.891 1030.48 703.609H1053.36ZM1124.66 698.969C1124.66 703.875 1124.08 708.297 1122.92 712.234C1121.77 716.172 1120.03 719.531 1117.72 722.312C1115.44 725.062 1112.56 727.188 1109.09 728.688C1105.62 730.156 1101.58 730.891 1096.95 730.891C1092.39 730.891 1088.44 730.219 1085.09 728.875C1081.78 727.5 1079.03 725.516 1076.84 722.922C1074.69 720.328 1073.08 717.109 1072.02 713.266C1070.95 709.422 1070.42 705 1070.42 700C1070.42 695.219 1071 690.875 1072.16 686.969C1073.31 683.062 1075.05 679.75 1077.36 677.031C1079.67 674.281 1082.56 672.172 1086.03 670.703C1089.5 669.203 1093.55 668.453 1098.17 668.453C1102.64 668.453 1106.53 669.125 1109.84 670.469C1113.16 671.812 1115.91 673.781 1118.09 676.375C1120.31 678.938 1121.95 682.125 1123.02 685.938C1124.11 689.719 1124.66 694.062 1124.66 698.969ZM1116.17 699.531C1116.17 696.094 1115.86 692.906 1115.23 689.969C1114.64 687 1113.62 684.438 1112.19 682.281C1110.78 680.094 1108.89 678.391 1106.52 677.172C1104.14 675.953 1101.2 675.344 1097.7 675.344C1094.2 675.344 1091.27 676 1088.89 677.312C1086.52 678.625 1084.58 680.375 1083.08 682.562C1081.61 684.75 1080.55 687.312 1079.89 690.25C1079.27 693.156 1078.95 696.219 1078.95 699.438C1078.95 703 1079.25 706.281 1079.84 709.281C1080.44 712.281 1081.44 714.875 1082.84 717.062C1084.25 719.219 1086.12 720.906 1088.47 722.125C1090.84 723.312 1093.81 723.906 1097.38 723.906C1100.91 723.906 1103.88 723.25 1106.28 721.938C1108.69 720.625 1110.62 718.859 1112.09 716.641C1113.56 714.391 1114.61 711.797 1115.23 708.859C1115.86 705.922 1116.17 702.812 1116.17 699.531ZM1169.98 712.984C1169.98 715.828 1169.45 718.359 1168.39 720.578C1167.36 722.797 1165.91 724.688 1164.03 726.25C1162.19 727.781 1160 728.938 1157.47 729.719C1154.97 730.5 1152.27 730.891 1149.36 730.891C1147.33 730.891 1145.44 730.719 1143.69 730.375C1141.97 730.031 1140.42 729.609 1139.05 729.109C1137.7 728.609 1136.56 728.094 1135.62 727.562C1134.72 727.031 1134.08 726.578 1133.7 726.203C1133.36 725.828 1133.09 725.359 1132.91 724.797C1132.75 724.203 1132.67 723.422 1132.67 722.453C1132.67 721.766 1132.7 721.203 1132.77 720.766C1132.83 720.297 1132.92 719.922 1133.05 719.641C1133.17 719.359 1133.33 719.172 1133.52 719.078C1133.7 718.953 1133.92 718.891 1134.17 718.891C1134.61 718.891 1135.22 719.156 1136 719.688C1136.81 720.219 1137.84 720.797 1139.09 721.422C1140.34 722.047 1141.84 722.641 1143.59 723.203C1145.38 723.734 1147.42 724 1149.73 724C1151.48 724 1153.08 723.766 1154.52 723.297C1155.98 722.828 1157.23 722.172 1158.27 721.328C1159.33 720.453 1160.14 719.391 1160.7 718.141C1161.27 716.891 1161.55 715.469 1161.55 713.875C1161.55 712.156 1161.16 710.688 1160.38 709.469C1159.59 708.25 1158.56 707.188 1157.28 706.281C1156 705.344 1154.53 704.5 1152.88 703.75C1151.25 702.969 1149.58 702.188 1147.86 701.406C1146.14 700.594 1144.47 699.703 1142.84 698.734C1141.22 697.766 1139.77 696.625 1138.48 695.312C1137.2 694 1136.16 692.469 1135.34 690.719C1134.56 688.938 1134.17 686.812 1134.17 684.344C1134.17 681.812 1134.62 679.562 1135.53 677.594C1136.47 675.594 1137.75 673.922 1139.38 672.578C1141.03 671.234 1142.98 670.219 1145.23 669.531C1147.52 668.812 1149.97 668.453 1152.59 668.453C1153.94 668.453 1155.28 668.578 1156.62 668.828C1158 669.047 1159.28 669.359 1160.47 669.766C1161.69 670.141 1162.77 670.578 1163.7 671.078C1164.64 671.547 1165.25 671.938 1165.53 672.25C1165.84 672.531 1166.05 672.766 1166.14 672.953C1166.23 673.109 1166.31 673.328 1166.38 673.609C1166.44 673.859 1166.48 674.172 1166.52 674.547C1166.55 674.922 1166.56 675.406 1166.56 676C1166.56 676.562 1166.53 677.062 1166.47 677.5C1166.44 677.938 1166.38 678.312 1166.28 678.625C1166.19 678.906 1166.05 679.125 1165.86 679.281C1165.7 679.406 1165.52 679.469 1165.3 679.469C1164.95 679.469 1164.41 679.25 1163.66 678.812C1162.94 678.375 1162.05 677.891 1160.98 677.359C1159.92 676.797 1158.66 676.297 1157.19 675.859C1155.75 675.391 1154.12 675.156 1152.31 675.156C1150.62 675.156 1149.16 675.391 1147.91 675.859C1146.66 676.297 1145.62 676.891 1144.81 677.641C1144 678.391 1143.39 679.281 1142.98 680.312C1142.58 681.344 1142.38 682.438 1142.38 683.594C1142.38 685.281 1142.77 686.734 1143.55 687.953C1144.33 689.172 1145.36 690.25 1146.64 691.188C1147.95 692.125 1149.44 692.984 1151.09 693.766C1152.75 694.547 1154.44 695.344 1156.16 696.156C1157.88 696.938 1159.56 697.812 1161.22 698.781C1162.88 699.719 1164.34 700.844 1165.62 702.156C1166.94 703.438 1167.98 704.969 1168.77 706.75C1169.58 708.5 1169.98 710.578 1169.98 712.984Z" fill="url(#paint4_linear_8_961)"/>
</g>
<defs>
<radialGradient id="paint0_radial_8_961" cx="0" cy="0" r="1" gradientUnits="userSpaceOnUse" gradientTransform="translate(1355.5 189.5) rotate(107.179) scale(887.074 1005.06)">
<stop stop-color="white"/>
<stop offset="1" stop-color="#D6D6D6"/>
</radialGradient>
<radialGradient id="paint1_radial_8_961" cx="0" cy="0" r="1" gradientUnits="userSpaceOnUse" gradientTransform="translate(170 377.5) rotate(12.7926) scale(1966.82 2444.98)">
<stop offset="0.0416667" stop-color="white"/>
<stop offset="1" stop-color="#222222" stop-opacity="0"/>
</radialGradient>
<radialGradient id="paint2_radial_8_961" cx="0" cy="0" r="1" gradientUnits="userSpaceOnUse" gradientTransform="translate(1160.5 872.5) rotate(144.595) scale(852.679 1094.19)">
<stop stop-color="#A4A4A4"/>
<stop offset="1" stop-color="#B8B8B8" stop-opacity="0"/>
</radialGradient>
<linearGradient id="paint3_linear_8_961" x1="623.5" y1="294" x2="1070" y2="535" gradientUnits="userSpaceOnUse">
<stop stop-color="#DCF0FF"/>
<stop offset="1" stop-color="#2D84D9"/>
</linearGradient>
<linearGradient id="paint4_linear_8_961" x1="763.5" y1="700.5" x2="1156.5" y2="719" gradientUnits="userSpaceOnUse">
<stop stop-color="#68A9E6"/>
<stop offset="1" stop-color="#2E84D9"/>
</linearGradient>
<clipPath id="clip0_8_961">
<rect width="1920" height="1080" fill="white"/>
</clipPath>
</defs>
</svg>
