<svg width="1080" height="1080" viewBox="0 0 1080 1080" fill="none" xmlns="http://www.w3.org/2000/svg">
<rect width="1080" height="1080" fill="white"/>
<path fill-rule="evenodd" clip-rule="evenodd" d="M568.776 350.205C568.776 366.614 555.107 380.464 537.562 380.464C520.016 380.464 506.348 366.614 506.348 350.205C506.348 333.796 520.016 319.945 537.562 319.945C555.107 319.945 568.776 333.796 568.776 350.205ZM548.168 396.262C569.677 391.529 585.746 372.705 585.746 350.205C585.746 324.134 564.174 303 537.562 303C510.95 303 489.377 324.134 489.377 350.205C489.377 373.125 506.052 392.231 528.167 396.512V455.81V462.063V473.663V474.268C532.165 473.695 536.232 473.576 540.289 473.866C551.405 474.657 562.449 478.506 571.792 484.426C584.545 492.507 593.986 504.872 598.41 519.293C602.834 533.713 601.95 549.237 595.918 563.064C589.886 576.89 579.103 588.109 565.515 594.694C551.927 601.279 536.429 602.798 521.818 598.976C507.206 595.154 494.444 586.243 485.835 573.851C477.226 561.459 473.336 546.403 474.869 531.4C476.4 516.399 483.25 502.439 494.183 492.038L494.19 492.031L488.954 486.542L485.829 483.267L480.594 477.779C477.641 480.587 474.915 483.594 472.43 486.77C462.848 499.017 456.853 513.779 455.258 529.403C453.832 543.368 455.988 557.368 461.396 570.129L381.814 615.738C370.271 604.599 354.427 597.726 336.943 597.726C301.628 597.726 273 625.77 273 660.363C273 694.956 301.628 723 336.943 723C372.258 723 400.887 694.956 400.887 660.363C400.887 650.092 398.363 640.398 393.89 631.844L471.354 587.449C482.59 602.46 498.61 613.253 516.822 618.017C535.982 623.029 556.305 621.037 574.123 612.401C585.954 606.667 596.165 598.254 604.005 587.94L664.34 622.872C662.892 627.657 662.115 632.725 662.115 637.971C662.115 667.217 686.266 690.925 716.057 690.925C745.849 690.925 770 667.217 770 637.971C770 608.725 745.849 585.017 716.057 585.017C698.872 585.017 683.563 592.906 673.685 605.197L614.091 570.694C621.91 552.621 623.035 532.356 617.258 513.527C611.456 494.618 599.077 478.402 582.353 467.806C571.493 460.925 560.153 456.736 548.168 455.415V396.262ZM382.704 660.363C382.704 684.603 362.545 704.844 336.943 704.844C311.341 704.844 291.183 684.603 291.183 660.363C291.183 636.123 311.341 615.882 336.943 615.882C362.545 615.882 382.704 636.123 382.704 660.363ZM716.057 675.19C737.399 675.19 754.241 658.276 754.241 637.971C754.241 617.667 737.399 600.752 716.057 600.752C694.715 600.752 677.873 617.667 677.873 637.971C677.873 658.276 694.715 675.19 716.057 675.19ZM575.443 537.813C575.443 558.535 558.619 575.334 537.865 575.334C517.111 575.334 500.287 558.535 500.287 537.813C500.287 517.09 517.111 500.291 537.865 500.291C558.619 500.291 575.443 517.09 575.443 537.813Z" fill="#509DE9"/>
<path d="M337.851 802.73C337.851 806.285 337.187 809.449 335.859 812.223C334.57 814.996 332.753 817.359 330.409 819.312C328.105 821.227 325.37 822.672 322.206 823.648C319.081 824.625 315.702 825.113 312.07 825.113C309.53 825.113 307.167 824.898 304.98 824.469C302.831 824.039 300.898 823.512 299.179 822.887C297.499 822.262 296.073 821.617 294.902 820.953C293.769 820.289 292.968 819.723 292.499 819.254C292.07 818.785 291.738 818.199 291.503 817.496C291.308 816.754 291.21 815.777 291.21 814.566C291.21 813.707 291.249 813.004 291.327 812.457C291.405 811.871 291.523 811.402 291.679 811.051C291.835 810.699 292.03 810.465 292.265 810.348C292.499 810.191 292.773 810.113 293.085 810.113C293.632 810.113 294.394 810.445 295.37 811.109C296.386 811.773 297.675 812.496 299.238 813.277C300.8 814.059 302.675 814.801 304.863 815.504C307.089 816.168 309.648 816.5 312.538 816.5C314.726 816.5 316.718 816.207 318.515 815.621C320.351 815.035 321.913 814.215 323.202 813.16C324.53 812.066 325.546 810.738 326.249 809.176C326.952 807.613 327.304 805.836 327.304 803.844C327.304 801.695 326.816 799.859 325.839 798.336C324.863 796.812 323.573 795.484 321.972 794.352C320.37 793.18 318.534 792.125 316.464 791.188C314.433 790.211 312.343 789.234 310.195 788.258C308.046 787.242 305.956 786.129 303.925 784.918C301.894 783.707 300.077 782.281 298.476 780.641C296.874 779 295.566 777.086 294.55 774.898C293.573 772.672 293.085 770.016 293.085 766.93C293.085 763.766 293.652 760.953 294.784 758.492C295.956 755.992 297.558 753.902 299.589 752.223C301.659 750.543 304.101 749.273 306.913 748.414C309.765 747.516 312.831 747.066 316.113 747.066C317.792 747.066 319.472 747.223 321.152 747.535C322.87 747.809 324.472 748.199 325.956 748.707C327.48 749.176 328.827 749.723 329.999 750.348C331.171 750.934 331.933 751.422 332.284 751.812C332.675 752.164 332.929 752.457 333.046 752.691C333.163 752.887 333.261 753.16 333.339 753.512C333.417 753.824 333.476 754.215 333.515 754.684C333.554 755.152 333.573 755.758 333.573 756.5C333.573 757.203 333.534 757.828 333.456 758.375C333.417 758.922 333.339 759.391 333.222 759.781C333.105 760.133 332.929 760.406 332.695 760.602C332.499 760.758 332.265 760.836 331.991 760.836C331.562 760.836 330.878 760.562 329.941 760.016C329.042 759.469 327.929 758.863 326.601 758.199C325.273 757.496 323.691 756.871 321.855 756.324C320.058 755.738 318.027 755.445 315.761 755.445C313.652 755.445 311.816 755.738 310.253 756.324C308.691 756.871 307.402 757.613 306.386 758.551C305.37 759.488 304.609 760.602 304.101 761.891C303.593 763.18 303.339 764.547 303.339 765.992C303.339 768.102 303.827 769.918 304.804 771.441C305.78 772.965 307.07 774.312 308.671 775.484C310.312 776.656 312.167 777.73 314.238 778.707C316.308 779.684 318.417 780.68 320.566 781.695C322.714 782.672 324.823 783.766 326.894 784.977C328.964 786.148 330.8 787.555 332.402 789.195C334.042 790.797 335.351 792.711 336.327 794.938C337.343 797.125 337.851 799.723 337.851 802.73ZM369.51 824L362.479 843.395C362.245 844.02 361.639 844.488 360.663 844.801C359.725 845.152 358.28 845.328 356.327 845.328C355.311 845.328 354.491 845.27 353.866 845.152C353.241 845.074 352.752 844.918 352.401 844.684C352.088 844.449 351.913 844.137 351.873 843.746C351.834 843.355 351.932 842.887 352.166 842.34L359.432 824C359.08 823.844 358.748 823.59 358.436 823.238C358.123 822.887 357.909 822.516 357.791 822.125L338.983 771.734C338.67 770.914 338.514 770.27 338.514 769.801C338.514 769.332 338.67 768.961 338.983 768.688C339.295 768.414 339.803 768.238 340.506 768.16C341.209 768.043 342.147 767.984 343.319 767.984C344.491 767.984 345.409 768.023 346.073 768.102C346.737 768.141 347.264 768.238 347.655 768.395C348.045 768.551 348.319 768.785 348.475 769.098C348.67 769.371 348.866 769.762 349.061 770.27L364.12 812.574H364.295L378.827 770.035C379.061 769.293 379.334 768.824 379.647 768.629C379.998 768.395 380.506 768.238 381.17 768.16C381.834 768.043 382.791 767.984 384.041 767.984C385.135 767.984 386.034 768.043 386.737 768.16C387.44 768.238 387.948 768.414 388.26 768.688C388.612 768.961 388.788 769.332 388.788 769.801C388.788 770.27 388.67 770.855 388.436 771.559L369.51 824ZM441.072 822.535C441.072 822.848 440.994 823.121 440.838 823.355C440.681 823.551 440.427 823.727 440.076 823.883C439.724 824.039 439.236 824.156 438.611 824.234C437.986 824.312 437.205 824.352 436.267 824.352C435.291 824.352 434.49 824.312 433.865 824.234C433.24 824.156 432.752 824.039 432.4 823.883C432.048 823.727 431.795 823.551 431.638 823.355C431.482 823.121 431.404 822.848 431.404 822.535V791.656C431.404 788.648 431.17 786.227 430.701 784.391C430.232 782.555 429.548 780.973 428.65 779.645C427.752 778.316 426.58 777.301 425.134 776.598C423.728 775.895 422.088 775.543 420.213 775.543C417.791 775.543 415.369 776.402 412.947 778.121C410.525 779.84 407.986 782.359 405.33 785.68V822.535C405.33 822.848 405.252 823.121 405.095 823.355C404.939 823.551 404.685 823.727 404.334 823.883C403.982 824.039 403.494 824.156 402.869 824.234C402.244 824.312 401.443 824.352 400.466 824.352C399.529 824.352 398.748 824.312 398.123 824.234C397.498 824.156 396.99 824.039 396.599 823.883C396.248 823.727 395.994 823.551 395.838 823.355C395.72 823.121 395.662 822.848 395.662 822.535V769.801C395.662 769.488 395.72 769.234 395.838 769.039C395.955 768.805 396.189 768.609 396.541 768.453C396.892 768.258 397.341 768.141 397.888 768.102C398.435 768.023 399.158 767.984 400.056 767.984C400.916 767.984 401.619 768.023 402.166 768.102C402.752 768.141 403.201 768.258 403.513 768.453C403.826 768.609 404.041 768.805 404.158 769.039C404.314 769.234 404.392 769.488 404.392 769.801V776.773C407.361 773.453 410.31 771.031 413.24 769.508C416.209 767.945 419.197 767.164 422.205 767.164C425.72 767.164 428.67 767.77 431.052 768.98C433.474 770.152 435.427 771.734 436.912 773.727C438.396 775.719 439.451 778.062 440.076 780.758C440.74 783.414 441.072 786.617 441.072 790.367V822.535ZM494.235 822.594C494.235 823.062 494.079 823.414 493.766 823.648C493.454 823.883 493.024 824.059 492.477 824.176C491.93 824.293 491.13 824.352 490.075 824.352C489.059 824.352 488.239 824.293 487.614 824.176C487.028 824.059 486.598 823.883 486.325 823.648C486.052 823.414 485.915 823.062 485.915 822.594V817.32C483.61 819.781 481.032 821.695 478.18 823.062C475.368 824.43 472.38 825.113 469.216 825.113C466.442 825.113 463.923 824.742 461.657 824C459.43 823.297 457.516 822.262 455.915 820.895C454.352 819.527 453.122 817.848 452.223 815.855C451.364 813.863 450.934 811.598 450.934 809.059C450.934 806.09 451.54 803.512 452.751 801.324C453.962 799.137 455.7 797.32 457.966 795.875C460.231 794.43 463.005 793.355 466.286 792.652C469.567 791.91 473.259 791.539 477.36 791.539H484.626V787.438C484.626 785.406 484.411 783.609 483.981 782.047C483.552 780.484 482.848 779.195 481.872 778.18C480.934 777.125 479.704 776.344 478.18 775.836C476.657 775.289 474.782 775.016 472.555 775.016C470.173 775.016 468.024 775.309 466.11 775.895C464.235 776.441 462.575 777.066 461.13 777.77C459.723 778.434 458.532 779.059 457.555 779.645C456.618 780.191 455.915 780.465 455.446 780.465C455.134 780.465 454.86 780.387 454.626 780.23C454.391 780.074 454.177 779.84 453.981 779.527C453.825 779.215 453.708 778.824 453.63 778.355C453.552 777.848 453.512 777.301 453.512 776.715C453.512 775.738 453.571 774.977 453.688 774.43C453.845 773.844 454.177 773.297 454.684 772.789C455.231 772.281 456.149 771.695 457.438 771.031C458.727 770.328 460.212 769.703 461.891 769.156C463.571 768.57 465.407 768.102 467.399 767.75C469.391 767.359 471.403 767.164 473.434 767.164C477.223 767.164 480.446 767.594 483.102 768.453C485.759 769.312 487.907 770.582 489.548 772.262C491.188 773.902 492.38 775.953 493.122 778.414C493.864 780.875 494.235 783.746 494.235 787.027V822.594ZM484.626 798.512H476.364C473.708 798.512 471.403 798.746 469.45 799.215C467.497 799.645 465.876 800.309 464.587 801.207C463.298 802.066 462.341 803.121 461.716 804.371C461.13 805.582 460.837 806.988 460.837 808.59C460.837 811.324 461.696 813.512 463.415 815.152C465.173 816.754 467.614 817.555 470.739 817.555C473.278 817.555 475.622 816.91 477.77 815.621C479.958 814.332 482.243 812.359 484.626 809.703V798.512ZM556.363 795.348C556.363 799.957 555.855 804.098 554.84 807.77C553.863 811.441 552.398 814.566 550.445 817.145C548.531 819.684 546.148 821.656 543.297 823.062C540.445 824.43 537.184 825.113 533.512 825.113C531.949 825.113 530.504 824.957 529.176 824.645C527.848 824.332 526.539 823.844 525.25 823.18C524 822.516 522.75 821.676 521.5 820.66C520.25 819.645 518.922 818.453 517.516 817.086V843.453C517.516 843.766 517.438 844.039 517.281 844.273C517.125 844.508 516.871 844.703 516.52 844.859C516.168 845.016 515.68 845.133 515.055 845.211C514.43 845.289 513.629 845.328 512.652 845.328C511.715 845.328 510.934 845.289 510.309 845.211C509.684 845.133 509.176 845.016 508.785 844.859C508.434 844.703 508.18 844.508 508.023 844.273C507.906 844.039 507.848 843.766 507.848 843.453V769.801C507.848 769.449 507.906 769.176 508.023 768.98C508.141 768.746 508.375 768.551 508.727 768.395C509.078 768.238 509.527 768.141 510.074 768.102C510.621 768.023 511.285 767.984 512.066 767.984C512.887 767.984 513.551 768.023 514.059 768.102C514.605 768.141 515.055 768.238 515.406 768.395C515.758 768.551 515.992 768.746 516.109 768.98C516.266 769.176 516.344 769.449 516.344 769.801V776.891C517.945 775.25 519.488 773.824 520.973 772.613C522.457 771.402 523.941 770.406 525.426 769.625C526.949 768.805 528.492 768.199 530.055 767.809C531.656 767.379 533.336 767.164 535.094 767.164C538.922 767.164 542.184 767.906 544.879 769.391C547.574 770.875 549.762 772.906 551.441 775.484C553.16 778.062 554.41 781.07 555.191 784.508C555.973 787.906 556.363 791.52 556.363 795.348ZM546.168 796.461C546.168 793.766 545.953 791.168 545.523 788.668C545.133 786.129 544.43 783.883 543.414 781.93C542.438 779.977 541.109 778.414 539.43 777.242C537.75 776.07 535.66 775.484 533.16 775.484C531.91 775.484 530.68 775.68 529.469 776.07C528.258 776.422 527.027 777.008 525.777 777.828C524.527 778.609 523.219 779.664 521.852 780.992C520.484 782.281 519.039 783.883 517.516 785.797V806.773C520.172 810.016 522.691 812.496 525.074 814.215C527.457 815.934 529.957 816.793 532.574 816.793C534.996 816.793 537.066 816.207 538.785 815.035C540.543 813.863 541.949 812.301 543.004 810.348C544.098 808.395 544.898 806.207 545.406 803.785C545.914 801.363 546.168 798.922 546.168 796.461ZM599.214 808.18C599.214 810.875 598.706 813.277 597.691 815.387C596.714 817.496 595.308 819.273 593.472 820.719C591.636 822.164 589.448 823.258 586.909 824C584.37 824.742 581.577 825.113 578.53 825.113C576.655 825.113 574.859 824.957 573.14 824.645C571.46 824.371 569.937 824.02 568.57 823.59C567.241 823.121 566.109 822.652 565.171 822.184C564.234 821.676 563.55 821.227 563.12 820.836C562.691 820.445 562.378 819.898 562.183 819.195C561.987 818.492 561.89 817.535 561.89 816.324C561.89 815.582 561.929 814.957 562.007 814.449C562.085 813.941 562.183 813.531 562.3 813.219C562.417 812.906 562.573 812.691 562.769 812.574C563.003 812.418 563.257 812.34 563.53 812.34C563.96 812.34 564.585 812.613 565.405 813.16C566.265 813.668 567.3 814.234 568.511 814.859C569.761 815.484 571.226 816.07 572.905 816.617C574.585 817.125 576.519 817.379 578.706 817.379C580.347 817.379 581.831 817.203 583.159 816.852C584.487 816.5 585.64 815.992 586.616 815.328C587.593 814.625 588.335 813.746 588.843 812.691C589.39 811.637 589.663 810.387 589.663 808.941C589.663 807.457 589.273 806.207 588.491 805.191C587.749 804.176 586.753 803.277 585.503 802.496C584.253 801.715 582.847 801.031 581.284 800.445C579.722 799.82 578.101 799.176 576.421 798.512C574.78 797.848 573.159 797.105 571.558 796.285C569.995 795.426 568.589 794.391 567.339 793.18C566.089 791.969 565.073 790.523 564.292 788.844C563.55 787.164 563.179 785.152 563.179 782.809C563.179 780.738 563.57 778.766 564.351 776.891C565.171 774.977 566.382 773.316 567.984 771.91C569.585 770.465 571.577 769.312 573.96 768.453C576.382 767.594 579.195 767.164 582.398 767.164C583.804 767.164 585.21 767.281 586.616 767.516C588.023 767.75 589.292 768.043 590.425 768.395C591.558 768.746 592.515 769.137 593.296 769.566C594.116 769.957 594.722 770.309 595.112 770.621C595.542 770.934 595.816 771.207 595.933 771.441C596.089 771.676 596.187 771.949 596.226 772.262C596.304 772.535 596.362 772.887 596.402 773.316C596.48 773.746 596.519 774.273 596.519 774.898C596.519 775.562 596.48 776.148 596.402 776.656C596.362 777.125 596.265 777.516 596.109 777.828C595.991 778.141 595.835 778.375 595.64 778.531C595.445 778.648 595.23 778.707 594.995 778.707C594.644 778.707 594.136 778.492 593.472 778.062C592.808 777.633 591.948 777.184 590.894 776.715C589.839 776.207 588.589 775.738 587.144 775.309C585.737 774.879 584.116 774.664 582.28 774.664C580.64 774.664 579.195 774.859 577.945 775.25C576.695 775.602 575.659 776.129 574.839 776.832C574.058 777.496 573.452 778.297 573.023 779.234C572.632 780.172 572.437 781.188 572.437 782.281C572.437 783.805 572.827 785.094 573.609 786.148C574.39 787.164 575.405 788.062 576.655 788.844C577.905 789.625 579.331 790.328 580.933 790.953C582.534 791.578 584.155 792.223 585.796 792.887C587.476 793.551 589.116 794.293 590.718 795.113C592.359 795.934 593.804 796.93 595.054 798.102C596.304 799.273 597.3 800.68 598.042 802.32C598.823 803.961 599.214 805.914 599.214 808.18ZM653.901 793.883C653.901 795.406 653.51 796.5 652.729 797.164C651.987 797.789 651.127 798.102 650.151 798.102H615.58C615.58 801.031 615.873 803.668 616.459 806.012C617.045 808.355 618.022 810.367 619.389 812.047C620.756 813.727 622.534 815.016 624.721 815.914C626.909 816.812 629.584 817.262 632.748 817.262C635.248 817.262 637.475 817.066 639.428 816.676C641.381 816.246 643.061 815.777 644.467 815.27C645.912 814.762 647.084 814.312 647.983 813.922C648.92 813.492 649.623 813.277 650.092 813.277C650.366 813.277 650.6 813.355 650.795 813.512C651.03 813.629 651.205 813.824 651.323 814.098C651.44 814.371 651.518 814.762 651.557 815.27C651.635 815.738 651.674 816.324 651.674 817.027C651.674 817.535 651.655 817.984 651.616 818.375C651.577 818.727 651.518 819.059 651.44 819.371C651.401 819.645 651.303 819.898 651.147 820.133C651.03 820.367 650.854 820.602 650.62 820.836C650.424 821.031 649.799 821.383 648.745 821.891C647.69 822.359 646.323 822.828 644.643 823.297C642.963 823.766 641.01 824.176 638.784 824.527C636.596 824.918 634.252 825.113 631.752 825.113C627.416 825.113 623.608 824.508 620.327 823.297C617.084 822.086 614.35 820.289 612.123 817.906C609.897 815.523 608.217 812.535 607.084 808.941C605.952 805.348 605.385 801.168 605.385 796.402C605.385 791.871 605.971 787.809 607.143 784.215C608.315 780.582 609.995 777.516 612.182 775.016C614.409 772.477 617.084 770.543 620.209 769.215C623.334 767.848 626.83 767.164 630.698 767.164C634.838 767.164 638.354 767.828 641.245 769.156C644.174 770.484 646.577 772.281 648.452 774.547C650.327 776.773 651.694 779.41 652.553 782.457C653.452 785.465 653.901 788.688 653.901 792.125V793.883ZM644.174 791.012C644.291 785.934 643.159 781.949 640.776 779.059C638.432 776.168 634.936 774.723 630.287 774.723C627.905 774.723 625.815 775.172 624.018 776.07C622.221 776.969 620.717 778.16 619.506 779.645C618.295 781.129 617.358 782.867 616.694 784.859C616.03 786.812 615.659 788.863 615.58 791.012H644.174ZM729.095 785.211C729.095 791.344 728.373 796.871 726.927 801.793C725.482 806.715 723.314 810.914 720.423 814.391C717.572 817.828 713.978 820.484 709.642 822.359C705.306 824.195 700.248 825.113 694.466 825.113C688.763 825.113 683.822 824.273 679.642 822.594C675.502 820.875 672.064 818.395 669.33 815.152C666.634 811.91 664.623 807.887 663.295 803.082C661.966 798.277 661.302 792.75 661.302 786.5C661.302 780.523 662.025 775.094 663.47 770.211C664.916 765.328 667.084 761.188 669.974 757.789C672.865 754.352 676.478 751.715 680.814 749.879C685.15 748.004 690.209 747.066 695.99 747.066C701.576 747.066 706.439 747.906 710.58 749.586C714.72 751.266 718.158 753.727 720.892 756.969C723.666 760.172 725.716 764.156 727.045 768.922C728.412 773.648 729.095 779.078 729.095 785.211ZM718.49 785.914C718.49 781.617 718.099 777.633 717.318 773.961C716.576 770.25 715.306 767.047 713.509 764.352C711.752 761.617 709.388 759.488 706.42 757.965C703.451 756.441 699.779 755.68 695.404 755.68C691.029 755.68 687.357 756.5 684.388 758.141C681.42 759.781 678.998 761.969 677.123 764.703C675.287 767.438 673.959 770.641 673.138 774.312C672.357 777.945 671.966 781.773 671.966 785.797C671.966 790.25 672.338 794.352 673.08 798.102C673.822 801.852 675.072 805.094 676.83 807.828C678.588 810.523 680.931 812.633 683.861 814.156C686.83 815.641 690.541 816.383 694.994 816.383C699.408 816.383 703.119 815.562 706.127 813.922C709.134 812.281 711.556 810.074 713.392 807.301C715.228 804.488 716.537 801.246 717.318 797.574C718.099 793.902 718.49 790.016 718.49 785.914ZM781.555 802.73C781.555 806.285 780.891 809.449 779.563 812.223C778.274 814.996 776.458 817.359 774.114 819.312C771.809 821.227 769.075 822.672 765.911 823.648C762.786 824.625 759.407 825.113 755.774 825.113C753.235 825.113 750.872 824.898 748.684 824.469C746.536 824.039 744.602 823.512 742.884 822.887C741.204 822.262 739.778 821.617 738.606 820.953C737.473 820.289 736.673 819.723 736.204 819.254C735.774 818.785 735.442 818.199 735.208 817.496C735.013 816.754 734.915 815.777 734.915 814.566C734.915 813.707 734.954 813.004 735.032 812.457C735.11 811.871 735.227 811.402 735.384 811.051C735.54 810.699 735.735 810.465 735.97 810.348C736.204 810.191 736.477 810.113 736.79 810.113C737.337 810.113 738.098 810.445 739.075 811.109C740.091 811.773 741.38 812.496 742.942 813.277C744.505 814.059 746.38 814.801 748.567 815.504C750.794 816.168 753.352 816.5 756.243 816.5C758.43 816.5 760.423 816.207 762.22 815.621C764.055 815.035 765.618 814.215 766.907 813.16C768.235 812.066 769.251 810.738 769.954 809.176C770.657 807.613 771.009 805.836 771.009 803.844C771.009 801.695 770.52 799.859 769.544 798.336C768.567 796.812 767.278 795.484 765.677 794.352C764.075 793.18 762.239 792.125 760.169 791.188C758.138 790.211 756.048 789.234 753.899 788.258C751.751 787.242 749.661 786.129 747.63 784.918C745.598 783.707 743.782 782.281 742.18 780.641C740.579 779 739.27 777.086 738.255 774.898C737.278 772.672 736.79 770.016 736.79 766.93C736.79 763.766 737.356 760.953 738.489 758.492C739.661 755.992 741.263 753.902 743.294 752.223C745.364 750.543 747.805 749.273 750.618 748.414C753.47 747.516 756.536 747.066 759.817 747.066C761.497 747.066 763.177 747.223 764.856 747.535C766.575 747.809 768.177 748.199 769.661 748.707C771.184 749.176 772.532 749.723 773.704 750.348C774.876 750.934 775.638 751.422 775.989 751.812C776.38 752.164 776.634 752.457 776.751 752.691C776.868 752.887 776.966 753.16 777.044 753.512C777.122 753.824 777.18 754.215 777.22 754.684C777.259 755.152 777.278 755.758 777.278 756.5C777.278 757.203 777.239 757.828 777.161 758.375C777.122 758.922 777.044 759.391 776.927 759.781C776.809 760.133 776.634 760.406 776.399 760.602C776.204 760.758 775.97 760.836 775.696 760.836C775.266 760.836 774.583 760.562 773.645 760.016C772.747 759.469 771.634 758.863 770.305 758.199C768.977 757.496 767.395 756.871 765.559 756.324C763.763 755.738 761.731 755.445 759.466 755.445C757.356 755.445 755.52 755.738 753.958 756.324C752.395 756.871 751.106 757.613 750.091 758.551C749.075 759.488 748.313 760.602 747.805 761.891C747.298 763.18 747.044 764.547 747.044 765.992C747.044 768.102 747.532 769.918 748.509 771.441C749.485 772.965 750.774 774.312 752.376 775.484C754.016 776.656 755.872 777.73 757.942 778.707C760.013 779.684 762.122 780.68 764.27 781.695C766.419 782.672 768.528 783.766 770.598 784.977C772.669 786.148 774.505 787.555 776.106 789.195C777.747 790.797 779.055 792.711 780.032 794.938C781.048 797.125 781.555 799.723 781.555 802.73Z" fill="#509DE9"/>
</svg>
