<svg width="1080" height="1080" viewBox="0 0 1080 1080" fill="none" xmlns="http://www.w3.org/2000/svg">
<rect width="1080" height="1080" fill="white"/>
<path fill-rule="evenodd" clip-rule="evenodd" d="M614 252C614 279.114 591.448 302 562.5 302C533.552 302 511 279.114 511 252C511 224.886 533.552 202 562.5 202C591.448 202 614 224.886 614 252ZM580 328.104C615.487 320.283 642 289.179 642 252C642 208.922 606.407 174 562.5 174C518.593 174 483 208.922 483 252C483 289.874 510.513 321.444 547 328.518V426.5V436.833V456V457C553.596 456.053 560.306 455.857 567 456.335C585.341 457.643 603.561 464.003 618.976 473.785C640.018 487.137 655.594 507.57 662.893 531.398C670.193 555.225 668.735 580.877 658.783 603.724C648.83 626.571 631.039 645.108 608.62 655.989C586.201 666.871 560.631 669.381 536.524 663.065C512.417 656.75 491.361 642.026 477.157 621.549C462.953 601.073 456.535 576.195 459.063 551.403C461.59 526.616 472.892 503.549 490.93 486.362L490.942 486.351L482.303 477.282L477.147 471.869L468.509 462.801C463.637 467.442 459.139 472.41 455.04 477.658C439.23 497.895 429.339 522.288 426.707 548.104C424.354 571.18 427.911 594.313 436.835 615.399L305.532 690.762C286.487 672.357 260.346 661 231.5 661C173.234 661 126 707.339 126 764.5C126 821.661 173.234 868 231.5 868C289.766 868 337 821.661 337 764.5C337 747.528 332.836 731.51 325.456 717.376L453.264 644.018C471.802 668.822 498.234 686.656 528.281 694.528C559.893 702.809 593.424 699.518 622.822 685.249C642.343 675.774 659.189 661.872 672.125 644.829L771.671 702.55C769.282 710.457 768 718.831 768 727.5C768 775.825 807.847 815 857 815C906.153 815 946 775.825 946 727.5C946 679.175 906.153 640 857 640C828.646 640 803.388 653.036 787.09 673.344L688.766 616.332C701.667 586.469 703.522 552.984 693.991 521.871C684.419 490.626 663.994 463.831 636.402 446.323C618.483 434.953 599.774 428.031 580 425.847V328.104ZM307 764.5C307 804.554 273.741 838 231.5 838C189.259 838 156 804.554 156 764.5C156 724.446 189.259 691 231.5 691C273.741 691 307 724.446 307 764.5ZM857 789C892.212 789 920 761.051 920 727.5C920 693.949 892.212 666 857 666C821.788 666 794 693.949 794 727.5C794 761.051 821.788 789 857 789ZM625 562C625 596.242 597.242 624 563 624C528.758 624 501 596.242 501 562C501 527.758 528.758 500 563 500C597.242 500 625 527.758 625 562Z" fill="#509DE9"/>
</svg>
